<?xml version="1.0" encoding="UTF-8" standalone="no"?>
<!-- Created with Inkscape (http://www.inkscape.org/) -->

<svg
   xmlns:dc="http://purl.org/dc/elements/1.1/"
   xmlns:cc="http://creativecommons.org/ns#"
   xmlns:rdf="http://www.w3.org/1999/02/22-rdf-syntax-ns#"
   xmlns:svg="http://www.w3.org/2000/svg"
   xmlns="http://www.w3.org/2000/svg"
   version="1.2"
   width="154.01665"
   height="67.323372"
   id="svg2">
  <defs
     id="defs4">
    <clipPath
       id="clipPath3001">
      <path
         d="m 0,0 1192.61,0 0,863 L 0,863 0,0 z"
         id="path3003" />
    </clipPath>
    <clipPath
       id="clipPath3280">
      <path
         d="m 0,0 922,0 0,538.586 -922,0 L 0,0 z"
         id="path3282" />
    </clipPath>
    <clipPath
       id="clipPath3375">
      <path
         d="m 0,0 922,0 0,538.586 -922,0 L 0,0 z"
         id="path3377" />
    </clipPath>
    <clipPath
       id="clipPath3482">
      <path
         d="m 0,0 922,0 0,538.586 -922,0 L 0,0 z"
         id="path3484" />
    </clipPath>
    <clipPath
       id="clipPath3585">
      <path
         d="m 0,548.672 1530,0 0,-540.00012 -1530,0 0,540.00012 z"
         id="path3587" />
    </clipPath>
  </defs>
  <metadata
     id="metadata7">
    <rdf:RDF>
      <cc:Work
         rdf:about="">
        <dc:format>image/svg+xml</dc:format>
        <dc:type
           rdf:resource="http://purl.org/dc/dcmitype/StillImage" />
        <dc:title></dc:title>
      </cc:Work>
    </rdf:RDF>
  </metadata>
  <g
     transform="translate(-47.008406,-542.16651)"
     id="layer1">
    <g
       id="g4480">
      <g
         id="g4475">
        <path
           d="m 70.208656,542.16663 c 9.69375,0 17.556125,7.85837 17.556125,17.55612 0,6.51275 -3.019125,12.16463 -7.902875,15.2285 -0.09562,0.0606 -0.165,0.15138 -0.165,0.27013 0,0.21425 0.169875,0.269 0.181625,0.27387 6.3355,2.45213 10.311,8.92188 10.311,16.4355 0,9.69975 -7.86425,17.55913 -17.559,17.55913 l -23.185112,-0.005 c -1.345704,0 -2.437013,-1.0918 -2.437013,-2.43457 l 0,-62.4473 c 0,-1.34613 1.091309,-2.4365 2.437013,-2.4365 l 20.763237,0"
           id="path3379"
           style="fill:#467d97;fill-opacity:1;fill-rule:nonzero;stroke:none" />
        <path
           d="m 61.720281,597.56898 c -0.3095,0 -0.574125,-0.26465 -0.574125,-0.57421 l 0,-14.07864 c 0,-0.30863 0.264625,-0.57425 0.574125,-0.57425 l 0.883875,0 c 0.3085,0 0.576625,0.26562 0.576625,0.57425 l 0,6.23687 5.4805,0 0,-6.23687 c 0,-0.30863 0.265125,-0.57425 0.574125,-0.57425 l 0.883875,0 c 0.309,0 0.574125,0.26562 0.574125,0.57425 l 0,14.07864 c 0,0.30956 -0.265125,0.57421 -0.574125,0.57421 l -0.883875,0 c -0.309,0 -0.574125,-0.26465 -0.574125,-0.57421 l 0,-6.05227 -5.4805,0 0,6.05227 c 0,0.30956 -0.268125,0.57421 -0.576625,0.57421 l -0.883875,0"
           id="path3381"
           style="fill:#fcd205;fill-opacity:1;fill-rule:nonzero;stroke:none" />
        <path
           d="m 61.661781,569.26038 c -0.309625,0 -0.57425,-0.26463 -0.57425,-0.57425 l 0,-14.0805 c 0,-0.30912 0.264625,-0.57675 0.57425,-0.57675 l 8.469625,0 c 0.309125,0 0.57425,0.26763 0.57425,0.57675 l 0,0.59662 c 0,0.30963 -0.265125,0.57425 -0.57425,0.57425 l -7.00975,0 0,4.8935 5.96925,0 c 0.311,0 0.576625,0.26513 0.576625,0.57475 l 0,0.59863 c 0,0.30962 -0.265625,0.57425 -0.576625,0.57425 l -5.96925,0 0,6.2685 c 0,0.30962 -0.265125,0.57425 -0.574125,0.57425 l -0.88575,0"
           id="path3383"
           style="fill:#fcd205;fill-opacity:1;fill-rule:nonzero;stroke:none" />
      </g>
      <text
         x="96.644974"
         y="548.98535"
         id="text3454"
         xml:space="preserve"
         style="font-size:8px;font-style:normal;font-weight:normal;text-align:center;line-height:112.99999952%;letter-spacing:0.25999999px;word-spacing:0px;text-anchor:middle;fill:#467d97;fill-opacity:1;stroke:none;font-family:Sans"><tspan
           x="96.644974"
           y="548.98535"
           id="tspan3458"
           style="font-size:9.40000153px;font-style:normal;font-variant:normal;font-weight:normal;font-stretch:normal;text-align:start;line-height:112.99999952%;letter-spacing:0.25999999px;word-spacing:0px;text-anchor:start;fill:#467d97;fill-opacity:1;font-family:UnitRoundedPro;-inkscape-font-specification:UnitRoundedPro"><tspan
   dx="0"
   dy="0"
   id="tspan3647"
   style="font-size:9.40000153px;font-style:normal;font-variant:normal;font-weight:normal;font-stretch:normal;text-align:start;line-height:112.99999952%;letter-spacing:0.25999999px;word-spacing:0px;text-anchor:start;fill:#467d97;fill-opacity:1;font-family:UnitRoundedPro;-inkscape-font-specification:UnitRoundedPro">Berner </tspan>Fachhochschule</tspan><tspan
           x="96.644974"
           y="560.27917"
           id="tspan3460"
           style="font-size:9.40000153px;font-style:normal;font-variant:normal;font-weight:normal;font-stretch:normal;text-align:start;line-height:112.99999952%;letter-spacing:0.25999999px;word-spacing:0px;text-anchor:start;fill:#467d97;fill-opacity:1;font-family:UnitRoundedPro;-inkscape-font-specification:UnitRoundedPro"><tspan
   dx="1.4200001"
   id="tspan3462"
   style="font-size:9px;font-style:normal;font-variant:normal;font-weight:normal;font-stretch:normal;line-height:112.99999952%;letter-spacing:0.25999999px;word-spacing:0px;fill:#fcd005;fill-opacity:1;font-family:Lucida Console;-inkscape-font-specification:Lucida Console">►</tspan>Technik und Informatik</tspan></text>
    </g>
    <flowRoot
       id="flowRoot3561"
       xml:space="preserve"
       style="font-size:8px;font-style:normal;font-weight:normal;text-align:center;line-height:125%;letter-spacing:0px;word-spacing:0px;text-anchor:middle;fill:#000000;fill-opacity:1;stroke:none;font-family:Sans"><flowRegion
         id="flowRegion3563"><rect
           width="131"
           height="18"
           x="350"
           y="822.36218"
           id="rect3565" /></flowRegion><flowPara
         id="flowPara3567"></flowPara></flowRoot>  </g>
</svg>
